<?xml version="1.0" encoding="UTF-8"?>
<!-- Adobe Illustrator ready · 160×240 (2:3) · white line icon on gradient -->
<svg xmlns="http://www.w3.org/2000/svg" width="160" height="240" viewBox="0 0 160 240">
  <title>4 for $4 — POPCORN</title>
  <defs>
    <linearGradient id="grad" x1="0" y1="0" x2="0" y2="1">
      <stop offset="0%" stop-color="#F6D76A"/>
      <stop offset="45%" stop-color="#E07A2F"/>
      <stop offset="100%" stop-color="#BA0C2F"/>
    </linearGradient>
    <linearGradient id="sheen" x1="0" y1="0" x2="0" y2="1">
      <stop offset="0%" stop-color="#FFFFFF" stop-opacity="0.28"/>
      <stop offset="42%" stop-color="#FFFFFF" stop-opacity="0"/>
    </linearGradient>
    <linearGradient id="shade" x1="0" y1="0" x2="0" y2="1">
      <stop offset="55%" stop-color="#000000" stop-opacity="0"/>
      <stop offset="100%" stop-color="#000000" stop-opacity="0.22"/>
    </linearGradient>
  </defs>
  <g id="frame-popcorn">
    <g id="bg-gradient">
      <rect x="2" y="2" width="156" height="236" rx="18" ry="18" fill="url(#grad)" stroke="#FFFFFF" stroke-opacity="0.55" stroke-width="3"/>
      <rect x="2" y="2" width="156" height="236" rx="18" ry="18" fill="url(#sheen)"/>
      <rect x="2" y="2" width="156" height="236" rx="18" ry="18" fill="url(#shade)"/>
    </g>
    <g id="icon-white-line">
      <svg x="32" y="40" width="96" height="96" viewBox="0 0 48 48">
  <g fill="none" stroke="#FFFFFF" stroke-width="2.2" stroke-linecap="round" stroke-linejoin="round">
    <path d="M16 20h16l-2 22H18L16 20z"/>
    <path d="M18 28h12M17 34h14"/>
    <circle cx="20" cy="15" r="3.2"/>
    <circle cx="28" cy="13" r="3.5"/>
    <circle cx="24" cy="18" r="2.8"/>
  </g>
</svg>
    </g>
    <g id="label">
      <text x="80" y="218" text-anchor="middle" font-family="Arial, Helvetica, sans-serif" font-size="11" font-weight="700" fill="#FFFFFF" letter-spacing="0.06em">POPCORN</text>
    </g>
  </g>
</svg>
